<?xml version="1.0" encoding="utf-8"?>
<!-- Generator: Adobe Illustrator 18.0.0, SVG Export Plug-In . SVG Version: 6.00 Build 0)  -->
<!DOCTYPE svg PUBLIC "-//W3C//DTD SVG 1.1//EN" "http://www.w3.org/Graphics/SVG/1.1/DTD/svg11.dtd">
<svg version="1.1" xmlns="http://www.w3.org/2000/svg" xmlns:xlink="http://www.w3.org/1999/xlink" x="0px" y="0px"
	 viewBox="0 0 1484.9 325.5" enable-background="new 0 0 1484.9 325.5" xml:space="preserve">
<g id="full_x5F_logo">
	<g id="text">
		<g>
			<path d="M-805.2-216.5l39.9-7.7c0,4,0.1,7.5,0.2,10.5c0.1,3,0.5,6.3,1.1,9.9c0.6,3.6,1.4,6.5,2.5,8.8c1,2.3,2.5,4.2,4.4,5.7
				c1.9,1.5,4.2,2.3,6.8,2.3c7.8,0,11.7-5,11.7-14.9c0-13.6-7.7-27.2-23-40.6l-12.2-10.4c-3.9-3.2-7-5.9-9.3-8.1
				c-2.3-2.2-5-5.1-8.2-8.8c-3.1-3.7-5.6-7.2-7.3-10.6c-1.8-3.4-3.3-7.5-4.5-12.4c-1.3-4.8-1.9-9.9-1.9-15.3c0-15.8,5-28.3,15-37.4
				c10-9.2,23.3-13.8,39.9-13.8c13.8,0,25.5,4.9,35.1,14.7c9.7,9.8,14.5,21.6,14.5,35.4l-0.1,1.4c0,0.9,0,2,0,3.2l-40.6,5.6
				c0-0.8,0.1-2,0.2-3.7c0.1-1.7,0.2-3.1,0.2-4.2c0-2.6-0.2-5.1-0.5-7.5c-0.4-2.4-1-4.8-1.8-7.1c-0.8-2.4-2.1-4.3-3.8-5.7
				c-1.7-1.4-3.8-2.1-6.3-2.1c-4.3,0-7.6,1.7-9.7,5.1c-2.2,3.4-3.2,7.4-3.2,12c0,4,0.6,7.8,1.9,11.3c1.3,3.5,3.2,6.8,5.7,9.9
				c2.6,3.1,4.9,5.6,7.1,7.6c2.2,2,5,4.5,8.6,7.4c3.6,2.9,6.2,5.1,7.7,6.4c5.5,4.9,10.2,9.5,14,13.8c3.8,4.3,7.4,9.1,10.8,14.5
				c3.4,5.4,5.9,11.2,7.6,17.5c1.7,6.3,2.5,13,2.5,20.3c0,13.6-4.9,24.8-14.6,33.4c-9.7,8.7-21.5,13-35.4,13c-9,0-17-1.7-24-5
				c-7-3.3-12.6-7.8-16.9-13.5c-4.3-5.7-7.6-12-9.9-18.9C-803.5-201.2-804.8-208.6-805.2-216.5z"/>
			<path d="M-684.7-160.8v-194.5h39.3v167.5h38.7v27H-684.7z"/>
			<path d="M-594.2-160.8v-194.5h39.3v194.5H-594.2z"/>
			<path d="M-531.7-160.8v-194.5h40.6c13,0,23.6,1.2,32,3.5c8.4,2.3,15,6.2,19.8,11.6c4.8,5.4,8.1,11.8,9.9,19.3
				c1.8,7.5,2.8,17,2.8,28.6v63.7c0,6.9-0.2,12.9-0.6,18.1c-0.4,5.2-1.2,10.2-2.4,15.1c-1.2,4.9-2.8,9.1-4.9,12.5
				c-2.1,3.4-4.7,6.6-7.9,9.6c-3.2,3-7.1,5.3-11.7,7c-4.6,1.7-9.9,3.1-16.1,4c-6.2,0.9-13.2,1.4-21.2,1.4H-531.7z M-490.9-188.4
				c3.7,0,6.7-0.1,8.9-0.2s4.3-0.4,6.5-0.8c2.2-0.4,3.7-1,4.8-1.8c1-0.8,1.9-1.9,2.8-3.3c0.9-1.4,1.4-3.2,1.7-5.1
				c0.3-2,0.4-4.4,0.4-7.4v-104.7c0-6.4-1.9-10.7-5.7-12.8c-3.8-2.1-10.2-3.2-19.2-3.2V-188.4z"/>
			<path d="M-406-160.8v-194.5h81.1v27h-41.8v52.9h29.6v27.7h-29.6v59.9h41.8v27H-406z"/>
			<path d="M-287.1-160.8l-32.6-195h16.1l26.6,166.8l25.1-166.8h21.9l23,166.8l26.5-166.8h16l-32.4,195h-19.8L-241.1-333
				l-26.3,172.2H-287.1z"/>
			<path d="M-145.5-160.8v-195h17.2v195H-145.5z"/>
			<path d="M-95.1-160.8v-195h13.3l61.7,154.4v-154.4h14.6v195h-12.9L-80.2-312v151.1H-95.1z"/>
			<path d="M27.6-160.8v-195h43.8c7.4,0,14,1,19.7,3c5.7,2,10.5,4.7,14.2,8.2c3.7,3.4,6.8,7.6,9.2,12.6s4.1,10.3,5.1,15.9
				c1,5.6,1.5,11.7,1.5,18.5v79.3c0,38.4-16.6,57.5-49.7,57.5H27.6z M44.8-174.7h26.6c21.7,0,32.5-13.3,32.5-39.9v-87
				c0-27-10.8-40.4-32.5-40.4H44.8V-174.7z"/>
			<path d="M150.6-160.8v-195h68v13.8h-50.8v73.9h36.2v13h-36.2v80.4h50.8v13.8H150.6z"/>
			<path d="M240.7-160.8v-195h52c6.6,0,12.3,0.9,17.3,2.7s9,4.2,12.1,7.2c3.1,3,5.5,6.7,7.4,11.1c1.9,4.4,3.2,9,3.9,13.7
				c0.7,4.7,1.1,10,1.1,15.7c0,24.8-9.1,40.6-27.2,47.2l30.1,97.3h-18.4L290.6-256h-32.7v95.2H240.7z M257.9-269.8h34.7
				c4.9,0,9.1-1,12.5-2.9c3.4-2,5.9-4.8,7.6-8.4s2.9-7.4,3.6-11.3c0.7-3.9,1-8.4,1-13.5c0-4.2-0.2-7.9-0.6-11.2
				c-0.4-3.3-1.2-6.6-2.3-9.7c-1.1-3.2-2.5-5.8-4.4-8s-4.2-3.9-7.1-5.2c-2.9-1.3-6.4-1.9-10.3-1.9h-34.7V-269.8z"/>
		</g>
		<g>
			<path d="M312.3,173l39.9-7.7c0,4,0.1,7.5,0.2,10.5c0.1,3,0.5,6.3,1.1,9.9c0.6,3.6,1.4,6.5,2.5,8.8c1,2.3,2.5,4.2,4.4,5.7
				c1.9,1.5,4.2,2.3,6.8,2.3c7.8,0,11.7-5,11.7-14.9c0-13.6-7.7-27.2-23-40.6l-12.2-10.4c-3.9-3.2-7-5.9-9.3-8.1
				c-2.3-2.2-5-5.1-8.2-8.8c-3.1-3.7-5.6-7.2-7.3-10.6c-1.8-3.4-3.3-7.5-4.5-12.4c-1.3-4.8-1.9-9.9-1.9-15.3c0-15.8,5-28.3,15-37.4
				c10-9.2,23.3-13.8,39.9-13.8c13.8,0,25.5,4.9,35.1,14.7c9.7,9.8,14.5,21.6,14.5,35.4l-0.1,1.4c0,0.9,0,2,0,3.2l-40.6,5.6
				c0-0.8,0.1-2,0.2-3.7c0.1-1.7,0.2-3.1,0.2-4.2c0-2.6-0.2-5.1-0.5-7.5c-0.4-2.4-1-4.8-1.8-7.1c-0.8-2.4-2.1-4.3-3.8-5.7
				c-1.7-1.4-3.8-2.1-6.3-2.1c-4.3,0-7.6,1.7-9.7,5.1c-2.2,3.4-3.2,7.4-3.2,12c0,4,0.6,7.8,1.9,11.3c1.3,3.5,3.2,6.8,5.7,9.9
				c2.6,3.1,4.9,5.6,7.1,7.6c2.2,2,5,4.5,8.6,7.4c3.6,2.9,6.2,5.1,7.7,6.4c5.5,4.9,10.2,9.5,14,13.8c3.8,4.3,7.4,9.1,10.8,14.5
				c3.4,5.4,5.9,11.2,7.6,17.5c1.7,6.3,2.5,13,2.5,20.3c0,13.6-4.9,24.8-14.6,33.4c-9.7,8.7-21.5,13-35.4,13c-9,0-17-1.7-24-5
				c-7-3.3-12.6-7.8-16.9-13.5c-4.3-5.7-7.6-12-9.9-18.9C314,188.3,312.7,180.9,312.3,173z"/>
			<path d="M432.8,228.7V34.2h39.3v167.5h38.7v27H432.8z"/>
			<path d="M523.3,228.7V34.2h39.3v194.5H523.3z"/>
			<path d="M585.8,228.7V34.2h40.6c13,0,23.6,1.2,32,3.5c8.4,2.3,15,6.2,19.8,11.6c4.8,5.4,8.1,11.8,9.9,19.3
				c1.8,7.5,2.8,17,2.8,28.6v63.7c0,6.9-0.2,12.9-0.6,18.1c-0.4,5.2-1.2,10.2-2.4,15.1c-1.2,4.9-2.8,9.1-4.9,12.5
				c-2.1,3.4-4.7,6.6-7.9,9.6c-3.2,3-7.1,5.3-11.7,7c-4.6,1.7-9.9,3.1-16.1,4c-6.2,0.9-13.2,1.4-21.2,1.4H585.8z M626.6,201.1
				c3.7,0,6.7-0.1,8.9-0.2s4.3-0.4,6.5-0.8c2.2-0.4,3.7-1,4.8-1.8c1-0.8,1.9-1.9,2.8-3.3c0.9-1.4,1.4-3.2,1.7-5.1
				c0.3-2,0.4-4.4,0.4-7.4V77.8c0-6.4-1.9-10.7-5.7-12.8c-3.8-2.1-10.2-3.2-19.2-3.2V201.1z"/>
			<path d="M711.5,228.7V34.2h81.1v27h-41.8v52.9h29.6v27.7h-29.6v59.9h41.8v27H711.5z"/>
			<path d="M830.4,228.7l-32.6-195h16.1l26.6,166.8l25.1-166.8h21.9l23,166.8L937,33.7h16l-32.4,195h-19.8L876.4,56.5l-26.3,172.2
				H830.4z"/>
			<path d="M972,228.7v-195h17.2v195H972z"/>
			<path d="M1022.4,228.7v-195h13.3l61.7,154.4V33.7h14.6v195h-12.9l-61.9-151.1v151.1H1022.4z"/>
			<path d="M1145.1,228.7v-195h43.8c7.4,0,14,1,19.7,3c5.7,2,10.5,4.7,14.2,8.2c3.7,3.4,6.8,7.6,9.2,12.6s4.1,10.3,5.1,15.9
				c1,5.6,1.5,11.7,1.5,18.5v79.3c0,38.4-16.6,57.5-49.7,57.5H1145.1z M1162.3,214.8h26.6c21.7,0,32.5-13.3,32.5-39.9V88
				c0-27-10.8-40.4-32.5-40.4h-26.6V214.8z"/>
			<path d="M1268.1,228.7v-195h68v13.8h-50.8v73.9h36.2v13h-36.2v80.4h50.8v13.8H1268.1z"/>
			<path d="M1358.2,228.7v-195h52c6.6,0,12.3,0.9,17.3,2.7s9,4.2,12.1,7.2c3.1,3,5.5,6.7,7.4,11.1c1.9,4.4,3.2,9,3.9,13.7
				c0.7,4.7,1.1,10,1.1,15.7c0,24.8-9.1,40.6-27.2,47.2l30.1,97.3h-18.4l-28.4-95.2h-32.7v95.2H1358.2z M1375.4,119.7h34.7
				c4.9,0,9.1-1,12.5-2.9c3.4-2,5.9-4.8,7.6-8.4s2.9-7.4,3.6-11.3c0.7-3.9,1-8.4,1-13.5c0-4.2-0.2-7.9-0.6-11.2
				c-0.4-3.3-1.2-6.6-2.3-9.7c-1.1-3.2-2.5-5.8-4.4-8s-4.2-3.9-7.1-5.2c-2.9-1.3-6.4-1.9-10.3-1.9h-34.7V119.7z"/>
		</g>
		<g>
			<path d="M-814.1-691l39.9-7.7c0,4,0.1,7.5,0.2,10.5c0.1,3,0.5,6.3,1.1,9.9c0.6,3.6,1.4,6.5,2.5,8.8c1,2.3,2.5,4.2,4.4,5.7
				c1.9,1.5,4.2,2.3,6.8,2.3c7.8,0,11.7-5,11.7-14.9c0-13.6-7.7-27.2-23-40.6l-12.2-10.4c-3.9-3.2-7-5.9-9.3-8.1
				c-2.3-2.2-5-5.1-8.2-8.8c-3.1-3.7-5.6-7.2-7.3-10.6c-1.8-3.4-3.3-7.5-4.5-12.4c-1.3-4.8-1.9-9.9-1.9-15.3c0-15.8,5-28.3,15-37.4
				c10-9.2,23.3-13.8,39.9-13.8c13.8,0,25.5,4.9,35.1,14.7c9.7,9.8,14.5,21.6,14.5,35.4l-0.1,1.4c0,0.9,0,2,0,3.2l-40.6,5.6
				c0-0.8,0.1-2,0.2-3.7c0.1-1.7,0.2-3.1,0.2-4.2c0-2.6-0.2-5.1-0.5-7.5c-0.4-2.4-1-4.8-1.8-7.1c-0.8-2.4-2.1-4.3-3.8-5.7
				c-1.7-1.4-3.8-2.1-6.3-2.1c-4.3,0-7.6,1.7-9.7,5.1c-2.2,3.4-3.2,7.4-3.2,12c0,4,0.6,7.8,1.9,11.3c1.3,3.5,3.2,6.8,5.7,9.9
				c2.6,3.1,4.9,5.6,7.1,7.6c2.2,2,5,4.5,8.6,7.4c3.6,2.9,6.2,5.1,7.7,6.4c5.5,4.9,10.2,9.5,14,13.8c3.8,4.3,7.4,9.1,10.8,14.5
				c3.4,5.4,5.9,11.2,7.6,17.5c1.7,6.3,2.5,13,2.5,20.3c0,13.6-4.9,24.8-14.6,33.4c-9.7,8.7-21.5,13-35.4,13c-9,0-17-1.7-24-5
				c-7-3.3-12.6-7.8-16.9-13.5c-4.3-5.7-7.6-12-9.9-18.9C-812.4-675.7-813.8-683.1-814.1-691z"/>
			<path d="M-693.6-635.4v-194.5h39.3v167.5h38.7v27H-693.6z"/>
			<path d="M-603.1-635.4v-194.5h39.3v194.5H-603.1z"/>
			<path d="M-540.6-635.4v-194.5h40.6c13,0,23.6,1.2,32,3.5c8.4,2.3,15,6.2,19.8,11.6c4.8,5.4,8.1,11.8,9.9,19.3
				c1.8,7.5,2.8,17,2.8,28.6v63.7c0,6.9-0.2,12.9-0.6,18.1c-0.4,5.2-1.2,10.2-2.4,15.1c-1.2,4.9-2.8,9.1-4.9,12.5
				c-2.1,3.4-4.7,6.6-7.9,9.6c-3.2,3-7.1,5.3-11.7,7c-4.6,1.7-9.9,3.1-16.1,4c-6.2,0.9-13.2,1.4-21.2,1.4H-540.6z M-499.8-662.9
				c3.7,0,6.7-0.1,8.9-0.2c2.2-0.1,4.3-0.4,6.5-0.8s3.7-1,4.8-1.8c1-0.8,1.9-1.9,2.8-3.3c0.9-1.4,1.4-3.2,1.7-5.1
				c0.3-2,0.4-4.4,0.4-7.4v-104.7c0-6.4-1.9-10.7-5.7-12.8c-3.8-2.1-10.2-3.2-19.2-3.2V-662.9z"/>
			<path d="M-414.9-635.4v-194.5h81.1v27h-41.8v52.9h29.6v27.7h-29.6v59.9h41.8v27H-414.9z"/>
			<path d="M-296-635.4l-32.6-195h16.1l26.6,166.8l25.1-166.8h21.9l23,166.8l26.5-166.8h16l-32.4,195h-19.8L-250-807.6l-26.3,172.2
				H-296z"/>
			<path d="M-154.4-635.4v-195h17.2v195H-154.4z"/>
			<path d="M-104-635.4v-195h13.3L-29-675.9v-154.4h14.6v195h-12.9l-61.9-151.1v151.1H-104z"/>
			<path d="M18.7-635.4v-195h43.8c7.4,0,14,1,19.7,3c5.7,2,10.5,4.7,14.2,8.2c3.7,3.4,6.8,7.6,9.2,12.6s4.1,10.3,5.1,15.9
				c1,5.6,1.5,11.7,1.5,18.5v79.3c0,38.4-16.6,57.5-49.7,57.5H18.7z M35.9-649.2h26.6c21.7,0,32.5-13.3,32.5-39.9v-87
				c0-27-10.8-40.4-32.5-40.4H35.9V-649.2z"/>
			<path d="M141.7-635.4v-195h68v13.8h-50.8v73.9h36.2v13h-36.2v80.4h50.8v13.8H141.7z"/>
			<path d="M231.8-635.4v-195h52c6.6,0,12.3,0.9,17.3,2.7s9,4.2,12.1,7.2c3.1,3,5.5,6.7,7.4,11.1c1.9,4.4,3.2,9,3.9,13.7
				c0.7,4.7,1.1,10,1.1,15.7c0,24.8-9.1,40.6-27.2,47.2l30.1,97.3h-18.4l-28.4-95.2H249v95.2H231.8z M249-744.4h34.7
				c4.9,0,9.1-1,12.5-2.9c3.4-2,5.9-4.8,7.6-8.4s2.9-7.4,3.6-11.3c0.7-3.9,1-8.4,1-13.5c0-4.2-0.2-7.9-0.6-11.2
				c-0.4-3.3-1.2-6.6-2.3-9.7c-1.1-3.2-2.5-5.8-4.4-8s-4.2-3.9-7.1-5.2c-2.9-1.3-6.4-1.9-10.3-1.9H249V-744.4z"/>
		</g>
		<g>
			<path d="M-544-562.4c-1.7,0.9-5.3,2-10,2c-10.5,0-17.4-7.1-17.4-17.8c0-10.7,7.3-18.5,18.7-18.5c3.7,0,7.1,0.9,8.8,1.8l-1.4,4.9
				c-1.5-0.9-3.9-1.7-7.3-1.7c-8,0-12.3,5.9-12.3,13.2c0,8.1,5.2,13,12.1,13c3.6,0,6-0.9,7.8-1.7L-544-562.4z"/>
			<path d="M-501.9-578.8c0,12.9-8.9,18.5-17.4,18.5c-9.4,0-16.7-6.9-16.7-17.9c0-11.7,7.6-18.5,17.3-18.5
				C-508.7-596.7-501.9-589.4-501.9-578.8z M-529.5-578.4c0,7.6,4.4,13.4,10.6,13.4c6,0,10.6-5.7,10.6-13.5c0-5.9-3-13.4-10.4-13.4
				C-526.3-592-529.5-585-529.5-578.4z"/>
			<path d="M-490.3-586.5c0-3.6-0.1-6.6-0.3-9.4h5.5l0.3,5.6h0.2c1.9-3.3,5.2-6.4,10.9-6.4c4.8,0,8.4,2.9,9.9,7h0.1
				c1.1-1.9,2.4-3.5,3.9-4.5c2.1-1.6,4.4-2.4,7.7-2.4c4.6,0,11.4,3,11.4,15.1v20.5h-6.2v-19.7c0-6.7-2.4-10.7-7.6-10.7
				c-3.6,0-6.4,2.7-7.5,5.8c-0.3,0.9-0.5,2-0.5,3.2v21.5h-6.2v-20.9c0-5.5-2.4-9.6-7.3-9.6c-4,0-6.8,3.2-7.8,6.3
				c-0.4,0.9-0.5,2-0.5,3.1v21h-6.2V-586.5z"/>
			<path d="M-426.7-586.5c0-3.6-0.1-6.6-0.3-9.4h5.5l0.3,5.6h0.2c1.9-3.3,5.2-6.4,10.9-6.4c4.8,0,8.4,2.9,9.9,7h0.1
				c1.1-1.9,2.4-3.5,3.9-4.5c2.1-1.6,4.4-2.4,7.7-2.4c4.6,0,11.4,3,11.4,15.1v20.5h-6.2v-19.7c0-6.7-2.4-10.7-7.6-10.7
				c-3.6,0-6.4,2.7-7.5,5.8c-0.3,0.9-0.5,2-0.5,3.2v21.5h-6.2v-20.9c0-5.5-2.4-9.6-7.3-9.6c-4,0-6.8,3.2-7.8,6.3
				c-0.4,0.9-0.5,2-0.5,3.1v21h-6.2V-586.5z"/>
			<path d="M-333.8-570.6c0,3.6,0.1,6.8,0.3,9.5h-5.6l-0.4-5.7h-0.1c-1.7,2.8-5.3,6.5-11.5,6.5c-5.5,0-12-3-12-15.3v-20.4h6.3v19.3
				c0,6.6,2,11.1,7.8,11.1c4.2,0,7.2-3,8.4-5.8c0.4-0.9,0.6-2.1,0.6-3.2v-21.4h6.3V-570.6z"/>
			<path d="M-319.7-586.5c0-3.6-0.1-6.6-0.3-9.4h5.6l0.4,5.8h0.1c1.7-3.3,5.8-6.6,11.5-6.6c4.8,0,12.3,2.9,12.3,14.8v20.8h-6.3
				v-20.1c0-5.6-2.1-10.3-8.1-10.3c-4.2,0-7.4,3-8.5,6.5c-0.3,0.8-0.4,1.9-0.4,3v21h-6.3V-586.5z"/>
			<path d="M-269.1-605.7c0.1,2.2-1.5,3.9-4,3.9c-2.2,0-3.8-1.7-3.8-3.9c0-2.2,1.7-4,4-4C-270.6-609.7-269.1-607.9-269.1-605.7z
				 M-276.2-561.1v-34.9h6.3v34.9H-276.2z"/>
			<path d="M-248.1-605.9v10h9.1v4.8h-9.1v18.8c0,4.3,1.2,6.8,4.8,6.8c1.7,0,2.9-0.2,3.7-0.4l0.3,4.8c-1.2,0.5-3.2,0.9-5.6,0.9
				c-3,0-5.3-0.9-6.8-2.7c-1.8-1.9-2.4-5-2.4-9.1v-19h-5.4v-4.8h5.4v-8.4L-248.1-605.9z"/>
			<path d="M-225.3-595.9l7.6,20.6c0.8,2.3,1.7,5,2.2,7.1h0.1c0.6-2.1,1.4-4.8,2.2-7.3l6.9-20.4h6.7l-9.5,24.8
				c-4.5,12-7.6,18.1-12,21.8c-3.1,2.7-6.2,3.8-7.8,4.1l-1.6-5.3c1.6-0.5,3.7-1.5,5.5-3.1c1.7-1.4,3.9-3.8,5.3-7.1
				c0.3-0.6,0.5-1.2,0.5-1.5s-0.1-0.9-0.4-1.7l-12.9-32.1H-225.3z"/>
			<path d="M-141.2-612.2v42.1c0,3.1,0.1,6.6,0.3,9h-5.7l-0.3-6h-0.1c-1.9,3.9-6.2,6.8-11.9,6.8c-8.4,0-14.9-7.1-14.9-17.7
				c-0.1-11.6,7.1-18.7,15.6-18.7c5.3,0,8.9,2.5,10.5,5.3h0.1v-20.8H-141.2z M-147.5-581.7c0-0.8-0.1-1.9-0.3-2.7
				c-0.9-4-4.4-7.3-9.1-7.3c-6.6,0-10.4,5.8-10.4,13.5c0,7.1,3.5,12.9,10.3,12.9c4.2,0,8.1-2.8,9.3-7.6c0.2-0.9,0.3-1.7,0.3-2.7
				V-581.7z"/>
			<path d="M-95.5-578.8c0,12.9-8.9,18.5-17.4,18.5c-9.4,0-16.7-6.9-16.7-17.9c0-11.7,7.6-18.5,17.3-18.5
				C-102.3-596.7-95.5-589.4-95.5-578.8z M-123.2-578.4c0,7.6,4.4,13.4,10.6,13.4c6,0,10.6-5.7,10.6-13.5c0-5.9-3-13.4-10.4-13.4
				C-119.9-592-123.2-585-123.2-578.4z"/>
			<path d="M-59.1-562.4c-1.7,0.9-5.3,2-10,2c-10.5,0-17.4-7.1-17.4-17.8c0-10.7,7.3-18.5,18.7-18.5c3.7,0,7.1,0.9,8.8,1.8l-1.4,4.9
				c-1.5-0.9-3.9-1.7-7.3-1.7c-8,0-12.3,5.9-12.3,13.2c0,8.1,5.2,13,12.1,13c3.6,0,6-0.9,7.8-1.7L-59.1-562.4z"/>
			<path d="M-18.9-570.6c0,3.6,0.1,6.8,0.3,9.5h-5.6l-0.4-5.7h-0.1c-1.7,2.8-5.3,6.5-11.5,6.5c-5.5,0-12-3-12-15.3v-20.4h6.3v19.3
				c0,6.6,2,11.1,7.8,11.1c4.2,0,7.2-3,8.4-5.8c0.4-0.9,0.6-2.1,0.6-3.2v-21.4h6.3V-570.6z"/>
			<path d="M-4.8-586.5c0-3.6-0.1-6.6-0.3-9.4h5.5l0.3,5.6H1c1.9-3.3,5.2-6.4,10.9-6.4c4.8,0,8.4,2.9,9.9,7h0.1
				c1.1-1.9,2.4-3.5,3.9-4.5c2.1-1.6,4.4-2.4,7.7-2.4c4.6,0,11.4,3,11.4,15.1v20.5h-6.2v-19.7c0-6.7-2.4-10.7-7.6-10.7
				c-3.6,0-6.4,2.7-7.5,5.8c-0.3,0.9-0.5,2-0.5,3.2v21.5H17v-20.9c0-5.5-2.4-9.6-7.3-9.6c-4,0-6.8,3.2-7.8,6.3
				c-0.4,0.9-0.5,2-0.5,3.1v21h-6.2V-586.5z"/>
			<path d="M62.4-577.3c0.1,8.6,5.6,12.1,12,12.1c4.5,0,7.3-0.8,9.6-1.8l1.1,4.5c-2.2,1-6,2.2-11.6,2.2c-10.7,0-17.1-7.1-17.1-17.6
				c0-10.5,6.2-18.8,16.3-18.8c11.4,0,14.4,10,14.4,16.4c0,1.3-0.1,2.3-0.2,3H62.4z M80.9-581.9c0.1-4-1.7-10.3-8.8-10.3
				c-6.4,0-9.2,5.9-9.7,10.3H80.9z"/>
			<path d="M98.5-586.5c0-3.6-0.1-6.6-0.3-9.4h5.6l0.4,5.8h0.1c1.7-3.3,5.8-6.6,11.5-6.6c4.8,0,12.3,2.9,12.3,14.8v20.8h-6.3v-20.1
				c0-5.6-2.1-10.3-8.1-10.3c-4.2,0-7.4,3-8.5,6.5c-0.3,0.8-0.4,1.9-0.4,3v21h-6.3V-586.5z"/>
			<path d="M149.4-605.9v10h9.1v4.8h-9.1v18.8c0,4.3,1.2,6.8,4.8,6.8c1.7,0,2.9-0.2,3.7-0.4l0.3,4.8c-1.2,0.5-3.2,0.9-5.6,0.9
				c-3,0-5.3-0.9-6.8-2.7c-1.8-1.9-2.4-5-2.4-9.1v-19h-5.4v-4.8h5.4v-8.4L149.4-605.9z"/>
			<path d="M188.5-561.1l-0.5-4.4h-0.2c-1.9,2.7-5.7,5.2-10.7,5.2c-7.1,0-10.7-5-10.7-10c0-8.4,7.5-13,21-13v-0.7
				c0-2.9-0.8-8.1-7.9-8.1c-3.2,0-6.6,1-9.1,2.6l-1.4-4.2c2.9-1.9,7.1-3.1,11.4-3.1c10.7,0,13.2,7.3,13.2,14.3v13c0,3,0.1,6,0.6,8.4
				H188.5z M187.6-578.8c-6.9-0.1-14.8,1.1-14.8,7.8c0,4.1,2.7,6,6,6c4.5,0,7.4-2.9,8.4-5.8c0.2-0.6,0.4-1.4,0.4-2V-578.8z"/>
			<path d="M214.9-605.9v10h9.1v4.8h-9.1v18.8c0,4.3,1.2,6.8,4.8,6.8c1.7,0,2.9-0.2,3.7-0.4l0.3,4.8c-1.2,0.5-3.2,0.9-5.6,0.9
				c-3,0-5.3-0.9-6.8-2.7c-1.8-1.9-2.4-5-2.4-9.1v-19h-5.4v-4.8h5.4v-8.4L214.9-605.9z"/>
			<path d="M241.7-605.7c0.1,2.2-1.5,3.9-4,3.9c-2.2,0-3.8-1.7-3.8-3.9c0-2.2,1.7-4,4-4C240.2-609.7,241.7-607.9,241.7-605.7z
				 M234.7-561.1v-34.9h6.3v34.9H234.7z"/>
			<path d="M286.6-578.8c0,12.9-8.9,18.5-17.4,18.5c-9.4,0-16.7-6.9-16.7-17.9c0-11.7,7.6-18.5,17.3-18.5
				C279.9-596.7,286.6-589.4,286.6-578.8z M259-578.4c0,7.6,4.4,13.4,10.6,13.4c6,0,10.6-5.7,10.6-13.5c0-5.9-3-13.4-10.4-13.4
				C262.2-592,259-585,259-578.4z"/>
			<path d="M298.2-586.5c0-3.6-0.1-6.6-0.3-9.4h5.6l0.4,5.8h0.1c1.7-3.3,5.8-6.6,11.5-6.6c4.8,0,12.3,2.9,12.3,14.8v20.8h-6.3v-20.1
				c0-5.6-2.1-10.3-8.1-10.3c-4.2,0-7.4,3-8.5,6.5c-0.3,0.8-0.4,1.9-0.4,3v21h-6.3V-586.5z"/>
		</g>
		<g>
			<path d="M321.7,260c0-0.8,0.3-1.5,0.8-2s1.2-0.8,2.1-0.8s1.6,0.3,2.1,0.8s0.8,1.2,0.8,2s-0.3,1.5-0.8,2c-0.5,0.5-1.2,0.8-2.1,0.8
				s-1.6-0.3-2.1-0.8C322,261.5,321.7,260.8,321.7,260z M326.7,309h-4.2v-38h4.2V309z"/>
			<path d="M346.4,271l0.1,6.5c1.4-2.3,3.2-4.1,5.3-5.4s4.5-1.8,7.1-1.8c4.1,0,7.1,1.1,9.1,3.4s3,5.7,3,10.3v25h-4.2v-25
				c0-3.4-0.7-5.9-2.2-7.6s-3.7-2.5-6.8-2.5c-2.6,0-4.9,0.8-6.9,2.4s-3.5,3.8-4.4,6.6V309h-4.2v-38H346.4z"/>
			<path d="M409.1,299.4c0-2.1-0.8-3.8-2.5-5s-4.2-2.3-7.6-3s-6-1.5-7.9-2.5s-3.2-2.1-4.1-3.4s-1.4-3-1.4-4.9c0-3,1.3-5.5,3.8-7.4
				s5.7-2.9,9.6-2.9c4.2,0,7.6,1,10.2,3.1s3.8,4.8,3.8,8.2h-4.2c0-2.2-0.9-4.1-2.8-5.6s-4.2-2.2-7-2.2c-2.8,0-5,0.6-6.7,1.8
				s-2.5,2.8-2.5,4.8c0,1.9,0.7,3.4,2.1,4.4s3.9,2,7.6,2.9s6.5,1.8,8.3,2.8s3.2,2.2,4.1,3.6s1.3,3.1,1.3,5c0,3.2-1.3,5.8-3.9,7.7
				s-6,2.9-10.1,2.9c-4.4,0-8-1.1-10.8-3.2s-4.1-4.9-4.1-8.1h4.2c0.2,2.5,1.2,4.4,3.1,5.7s4.4,2.1,7.6,2.1c2.9,0,5.3-0.6,7.1-1.9
				S409.1,301.3,409.1,299.4z"/>
			<path d="M433.6,261.2v9.7h7.9v3.4h-7.9v25.4c0,2.1,0.4,3.7,1.1,4.7c0.8,1,2,1.5,3.8,1.5c0.7,0,1.8-0.1,3.4-0.4l0.2,3.4
				c-1.1,0.4-2.6,0.6-4.5,0.6c-2.9,0-5-0.8-6.3-2.5s-2-4.1-2-7.4v-25.4h-7V271h7v-9.7H433.6z"/>
			<path d="M478.5,309c-0.4-1.2-0.7-3-0.8-5.3c-1.5,1.9-3.4,3.4-5.6,4.4s-4.7,1.6-7.3,1.6c-3.7,0-6.6-1-8.9-3.1s-3.4-4.6-3.4-7.7
				c0-3.7,1.5-6.6,4.6-8.8s7.4-3.2,12.9-3.2h7.6v-4.3c0-2.7-0.8-4.9-2.5-6.4s-4.1-2.3-7.3-2.3c-2.9,0-5.4,0.8-7.3,2.2
				s-2.9,3.3-2.9,5.4l-4.2,0c0-3,1.4-5.6,4.2-7.9s6.3-3.3,10.4-3.3c4.2,0,7.6,1.1,10,3.2s3.7,5.1,3.8,8.9v18c0,3.7,0.4,6.4,1.2,8.3
				v0.4H478.5z M465.3,306c2.8,0,5.3-0.7,7.5-2s3.8-3.2,4.8-5.4v-8.4h-7.5c-4.2,0-7.5,0.8-9.8,2.3s-3.6,3.5-3.6,6.1
				c0,2.1,0.8,3.9,2.4,5.3S462.8,306,465.3,306z"/>
			<path d="M501.4,271l0.1,6.5c1.4-2.3,3.2-4.1,5.3-5.4s4.5-1.8,7.1-1.8c4.1,0,7.1,1.1,9.1,3.4s3,5.7,3,10.3v25h-4.2v-25
				c0-3.4-0.7-5.9-2.2-7.6s-3.7-2.5-6.8-2.5c-2.6,0-4.9,0.8-6.9,2.4s-3.5,3.8-4.4,6.6V309h-4.2v-38H501.4z"/>
			<path d="M547.8,261.2v9.7h7.9v3.4h-7.9v25.4c0,2.1,0.4,3.7,1.1,4.7c0.8,1,2,1.5,3.8,1.5c0.7,0,1.8-0.1,3.4-0.4l0.2,3.4
				c-1.1,0.4-2.6,0.6-4.5,0.6c-2.9,0-5-0.8-6.3-2.5s-2-4.1-2-7.4v-25.4h-7V271h7v-9.7H547.8z"/>
			<path d="M621.1,290.4c0,5.9-1.3,10.6-3.9,14.1s-6.1,5.2-10.5,5.2c-5.2,0-9.2-1.8-12-5.5v19.4h-4.2V271h3.9l0.2,5.4
				c2.7-4.1,6.7-6.1,11.9-6.1c4.5,0,8.1,1.7,10.7,5.2s3.9,8.2,3.9,14.3V290.4z M616.9,289.6c0-4.9-1-8.7-3-11.5s-4.8-4.2-8.3-4.2
				c-2.6,0-4.8,0.6-6.6,1.9s-3.3,3-4.3,5.4v18.2c1,2.2,2.4,3.8,4.3,5s4.1,1.7,6.6,1.7c3.5,0,6.3-1.4,8.3-4.2S616.9,295,616.9,289.6z
				"/>
			<path d="M634.5,260c0-0.8,0.3-1.5,0.8-2s1.2-0.8,2.1-0.8s1.6,0.3,2.1,0.8s0.8,1.2,0.8,2s-0.3,1.5-0.8,2c-0.5,0.5-1.2,0.8-2.1,0.8
				s-1.6-0.3-2.1-0.8C634.8,261.5,634.5,260.8,634.5,260z M639.5,309h-4.2v-38h4.2V309z"/>
			<path d="M669.3,306.2c2.9,0,5.4-0.8,7.4-2.5s3.1-3.8,3.2-6.4h4c-0.1,2.3-0.8,4.4-2.2,6.3s-3.1,3.4-5.3,4.5s-4.6,1.6-7.1,1.6
				c-5,0-8.9-1.7-11.9-5.2s-4.4-8.1-4.4-14v-1.3c0-3.8,0.7-7.1,2-9.9s3.2-5.1,5.6-6.7s5.3-2.4,8.6-2.4c4.2,0,7.6,1.2,10.3,3.7
				s4.2,5.8,4.3,9.8h-4c-0.2-3-1.3-5.4-3.2-7.2s-4.4-2.7-7.4-2.7c-3.8,0-6.7,1.4-8.8,4.1s-3.1,6.6-3.1,11.5v1.2
				c0,4.9,1,8.6,3.1,11.4S665.5,306.2,669.3,306.2z"/>
			<path d="M705.7,289.9l-4.8,4.6V309h-4.2v-54h4.2v34.6l4-4.3l14.6-14.3h5.3l-16.1,16l17.5,22h-5L705.7,289.9z"/>
			<path d="M749.3,288.2h-16.8v-3.6h16.8V288.2z"/>
			<path d="M785.2,309c-0.4-1.2-0.7-3-0.8-5.3c-1.5,1.9-3.4,3.4-5.6,4.4s-4.7,1.6-7.3,1.6c-3.7,0-6.6-1-8.9-3.1s-3.4-4.6-3.4-7.7
				c0-3.7,1.5-6.6,4.6-8.8s7.4-3.2,12.9-3.2h7.6v-4.3c0-2.7-0.8-4.9-2.5-6.4s-4.1-2.3-7.3-2.3c-2.9,0-5.4,0.8-7.3,2.2
				s-2.9,3.3-2.9,5.4l-4.2,0c0-3,1.4-5.6,4.2-7.9s6.3-3.3,10.4-3.3c4.2,0,7.6,1.1,10,3.2s3.7,5.1,3.8,8.9v18c0,3.7,0.4,6.4,1.2,8.3
				v0.4H785.2z M771.9,306c2.8,0,5.3-0.7,7.5-2s3.8-3.2,4.8-5.4v-8.4h-7.5c-4.2,0-7.5,0.8-9.8,2.3s-3.6,3.5-3.6,6.1
				c0,2.1,0.8,3.9,2.4,5.3S769.4,306,771.9,306z"/>
			<path d="M808,271l0.1,6.5c1.4-2.3,3.2-4.1,5.3-5.4s4.5-1.8,7.1-1.8c4.1,0,7.1,1.1,9.1,3.4s3,5.7,3,10.3v25h-4.2v-25
				c0-3.4-0.7-5.9-2.2-7.6s-3.7-2.5-6.8-2.5c-2.6,0-4.9,0.8-6.9,2.4s-3.5,3.8-4.4,6.6V309H804v-38H808z"/>
			<path d="M846.2,289.6c0-5.9,1.3-10.6,4-14.1s6.2-5.3,10.7-5.3c5.1,0,9,2,11.7,6.1V255h4.2v54h-3.9l-0.2-5.1
				c-2.7,3.8-6.7,5.8-11.9,5.8c-4.4,0-7.9-1.8-10.6-5.3s-4-8.3-4-14.3V289.6z M850.5,290.4c0,4.9,1,8.7,2.9,11.5s4.7,4.2,8.2,4.2
				c5.2,0,8.9-2.3,11-6.9v-17.9c-2.2-4.9-5.8-7.4-11-7.4c-3.5,0-6.3,1.4-8.3,4.2S850.5,285,850.5,290.4z"/>
			<path d="M905.3,288.2h-16.8v-3.6h16.8V288.2z"/>
			<path d="M921,271l0.1,6.2c1.4-2.3,3.2-4,5.3-5.2s4.5-1.7,7-1.7c6,0,9.8,2.5,11.4,7.4c1.4-2.4,3.2-4.2,5.4-5.5s4.8-1.9,7.5-1.9
				c8.2,0,12.3,4.5,12.5,13.4V309h-4.2V284c0-3.4-0.8-5.9-2.2-7.6s-3.8-2.5-7-2.5c-3,0-5.6,1-7.7,2.9s-3.2,4.2-3.5,7V309h-4.2v-25.4
				c0-3.3-0.8-5.7-2.3-7.3s-3.8-2.4-7-2.4c-2.6,0-4.9,0.8-6.8,2.3s-3.3,3.8-4.2,6.7V309H917v-38H921z"/>
			<path d="M985,260c0-0.8,0.3-1.5,0.8-2s1.2-0.8,2.1-0.8s1.6,0.3,2.1,0.8s0.8,1.2,0.8,2s-0.3,1.5-0.8,2c-0.5,0.5-1.2,0.8-2.1,0.8
				s-1.6-0.3-2.1-0.8C985.3,261.5,985,260.8,985,260z M990,309h-4.2v-38h4.2V309z"/>
			<path d="M1017.7,286.4L1028,271h5l-12.9,18.7l13.5,19.4h-5l-10.8-16.1l-10.8,16.1h-5l13.4-19.4l-12.9-18.7h5L1017.7,286.4z"/>
			<path d="M1089.7,299.4c0-2.1-0.8-3.8-2.5-5s-4.2-2.3-7.6-3s-6-1.5-7.9-2.5s-3.2-2.1-4.1-3.4s-1.4-3-1.4-4.9c0-3,1.3-5.5,3.8-7.4
				s5.7-2.9,9.6-2.9c4.2,0,7.6,1,10.2,3.1s3.8,4.8,3.8,8.2h-4.2c0-2.2-0.9-4.1-2.8-5.6s-4.2-2.2-7-2.2c-2.8,0-5,0.6-6.7,1.8
				s-2.5,2.8-2.5,4.8c0,1.9,0.7,3.4,2.1,4.4s3.9,2,7.6,2.9s6.5,1.8,8.3,2.8s3.2,2.2,4.1,3.6s1.3,3.1,1.3,5c0,3.2-1.3,5.8-3.9,7.7
				s-6,2.9-10.1,2.9c-4.4,0-8-1.1-10.8-3.2s-4.1-4.9-4.1-8.1h4.2c0.2,2.5,1.2,4.4,3.1,5.7s4.4,2.1,7.6,2.1c2.9,0,5.3-0.6,7.1-1.9
				S1089.7,301.3,1089.7,299.4z"/>
			<path d="M1112.4,309h-4.2v-54h4.2V309z"/>
			<path d="M1127.9,260c0-0.8,0.3-1.5,0.8-2s1.2-0.8,2.1-0.8s1.6,0.3,2.1,0.8s0.8,1.2,0.8,2s-0.3,1.5-0.8,2
				c-0.5,0.5-1.2,0.8-2.1,0.8s-1.6-0.3-2.1-0.8C1128.2,261.5,1127.9,260.8,1127.9,260z M1132.9,309h-4.2v-38h4.2V309z"/>
			<path d="M1146.9,289.6c0-5.9,1.3-10.6,4-14.1s6.2-5.3,10.7-5.3c5.1,0,9,2,11.7,6.1V255h4.2v54h-3.9l-0.2-5.1
				c-2.7,3.8-6.7,5.8-11.9,5.8c-4.4,0-7.9-1.8-10.6-5.3s-4-8.3-4-14.3V289.6z M1151.2,290.4c0,4.9,1,8.7,2.9,11.5s4.7,4.2,8.2,4.2
				c5.2,0,8.9-2.3,11-6.9v-17.9c-2.2-4.9-5.8-7.4-11-7.4c-3.5,0-6.3,1.4-8.3,4.2S1151.2,285,1151.2,290.4z"/>
			<path d="M1207.7,309.7c-3.2,0-6.2-0.8-8.8-2.4s-4.6-3.8-6.1-6.7s-2.2-6-2.2-9.6v-1.5c0-3.7,0.7-6.9,2.1-9.9s3.4-5.2,5.9-6.9
				s5.3-2.5,8.2-2.5c4.6,0,8.3,1.6,11,4.7s4.1,7.5,4.1,12.9v2.4h-27.1v0.8c0,4.3,1.2,7.9,3.7,10.8s5.6,4.3,9.3,4.3
				c2.2,0,4.2-0.4,6-1.2s3.3-2.1,4.7-3.9l2.6,2C1218,307.5,1213.5,309.7,1207.7,309.7z M1206.9,273.9c-3.2,0-5.8,1.2-8,3.5
				s-3.5,5.4-4,9.4h22.8v-0.5c-0.1-3.7-1.2-6.6-3.1-8.9S1210.1,273.9,1206.9,273.9z"/>
			<path d="M1254.6,289.6c0-5.9,1.3-10.6,4-14.1s6.2-5.3,10.7-5.3c5.1,0,9,2,11.7,6.1V255h4.2v54h-3.9l-0.2-5.1
				c-2.7,3.8-6.7,5.8-11.9,5.8c-4.4,0-7.9-1.8-10.6-5.3s-4-8.3-4-14.3V289.6z M1258.8,290.4c0,4.9,1,8.7,2.9,11.5s4.7,4.2,8.2,4.2
				c5.2,0,8.9-2.3,11-6.9v-17.9c-2.2-4.9-5.8-7.4-11-7.4c-3.5,0-6.3,1.4-8.3,4.2S1258.8,285,1258.8,290.4z"/>
			<path d="M1315.3,309.7c-3.2,0-6.2-0.8-8.8-2.4s-4.6-3.8-6.1-6.7s-2.2-6-2.2-9.6v-1.5c0-3.7,0.7-6.9,2.1-9.9s3.4-5.2,5.9-6.9
				s5.3-2.5,8.2-2.5c4.6,0,8.3,1.6,11,4.7s4.1,7.5,4.1,12.9v2.4h-27.1v0.8c0,4.3,1.2,7.9,3.7,10.8s5.6,4.3,9.3,4.3
				c2.2,0,4.2-0.4,6-1.2s3.3-2.1,4.7-3.9l2.6,2C1325.7,307.5,1321.2,309.7,1315.3,309.7z M1314.6,273.9c-3.2,0-5.8,1.2-8,3.5
				s-3.5,5.4-4,9.4h22.8v-0.5c-0.1-3.7-1.2-6.6-3.1-8.9S1317.7,273.9,1314.6,273.9z"/>
			<path d="M1356.2,306.2c2.9,0,5.4-0.8,7.4-2.5s3.1-3.8,3.2-6.4h4c-0.1,2.3-0.8,4.4-2.2,6.3s-3.1,3.4-5.3,4.5s-4.6,1.6-7.1,1.6
				c-5,0-8.9-1.7-11.9-5.2s-4.4-8.1-4.4-14v-1.3c0-3.8,0.7-7.1,2-9.9s3.2-5.1,5.6-6.7s5.3-2.4,8.6-2.4c4.2,0,7.6,1.2,10.3,3.7
				s4.2,5.8,4.3,9.8h-4c-0.2-3-1.3-5.4-3.2-7.2s-4.4-2.7-7.4-2.7c-3.8,0-6.7,1.4-8.8,4.1s-3.1,6.6-3.1,11.5v1.2
				c0,4.9,1,8.6,3.1,11.4S1352.4,306.2,1356.2,306.2z"/>
			<path d="M1392.6,289.9l-4.8,4.6V309h-4.2v-54h4.2v34.6l4-4.3l14.6-14.3h5.3l-16.1,16l17.5,22h-5L1392.6,289.9z"/>
			<path d="M1445.9,299.4c0-2.1-0.8-3.8-2.5-5s-4.2-2.3-7.6-3s-6-1.5-7.9-2.5s-3.2-2.1-4.1-3.4s-1.4-3-1.4-4.9c0-3,1.3-5.5,3.8-7.4
				s5.7-2.9,9.6-2.9c4.2,0,7.6,1,10.2,3.1s3.8,4.8,3.8,8.2h-4.2c0-2.2-0.9-4.1-2.8-5.6s-4.2-2.2-7-2.2c-2.8,0-5,0.6-6.7,1.8
				s-2.5,2.8-2.5,4.8c0,1.9,0.7,3.4,2.1,4.4s3.9,2,7.6,2.9s6.5,1.8,8.3,2.8s3.2,2.2,4.1,3.6s1.3,3.1,1.3,5c0,3.2-1.3,5.8-3.9,7.7
				s-6,2.9-10.1,2.9c-4.4,0-8-1.1-10.8-3.2s-4.1-4.9-4.1-8.1h4.2c0.2,2.5,1.2,4.4,3.1,5.7s4.4,2.1,7.6,2.1c2.9,0,5.3-0.6,7.1-1.9
				S1445.9,301.3,1445.9,299.4z"/>
		</g>
	</g>
	<g id="hex">
		<g id="colours">
			<polygon fill="#FFC12A" points="-527.2,-262.1 -531.7,-270 -527.2,-262.1 			"/>
			<polygon fill="#E3F178" points="-827.8,-247.6 -828.1,-248.8 -828.8,-248.1 			"/>
			<polygon fill="#E3F178" points="-824.1,-279.9 -837.4,-256.8 -824,-279.7 			"/>
			<polygon fill="#80F4DF" points="-527.1,-261.9 -526.3,-263.2 -528.4,-264.1 -527.2,-262.1 			"/>
			<polygon fill="#FFC12A" points="600.8,133.9 596.3,126 600.8,133.9 			"/>
			<polygon fill="#E3F178" points="300.2,148.4 299.9,147.2 299.2,147.9 			"/>
			<polygon fill="#E3F178" points="303.9,116.1 290.6,139.2 304,116.3 			"/>
			<polygon fill="#80F4DF" points="600.9,134.1 601.7,132.8 599.6,131.9 600.8,133.9 			"/>
			<polygon fill="#FFC12A" points="-536.1,-715.7 -540.7,-723.6 -536.1,-715.7 			"/>
			<polygon fill="#E3F178" points="-833,-733.4 -846.3,-710.3 -832.9,-733.3 			"/>
			<polygon fill="#80F4DF" points="-536,-715.4 -535.2,-716.8 -537.3,-717.6 -536.1,-715.7 			"/>
		</g>
		<g id="outerhex">
		</g>
		<g id="innerhex">
			<g>
				<polygon fill="#80F4DF" points="-850.6,-324.1 -922.2,-315.8 -960.7,-134.4 -851,-197.4 				"/>
				<polygon fill="#6C0530" points="-849,-196.4 -923.6,-237.8 -1071,-196.2 -961.5,-132.8 				"/>
				<polygon fill="#921516" points="-960.7,-131.4 -959.3,-217.2 -1067.7,-325.8 -1070.7,-199.3 				"/>
				<polygon fill="#D64E01" points="-1068.5,-198.2 -1004.4,-232.4 -960,-386.4 -1069.8,-323.5 				"/>
				<polygon fill="#E3F178" points="-960.1,-386.5 -960.3,-386 -859,-327.4 				"/>
				<polygon fill="#E3F178" points="-954.2,-289.1 -932.2,-269.2 -926.1,-298.3 				"/>
				<polygon fill="#E3F178" points="-850.5,-196.6 -850.5,-197.8 -851.4,-197.3 				"/>
				<polygon fill="#E3F178" points="-850.9,-322.7 -850.9,-296.1 -850.8,-322.6 				"/>
				<polygon fill="#80F4DF" points="-850.9,-197.5 -850.9,-296 -851.4,-197.2 				"/>
				<polygon fill="#FFC12A" points="-960.6,-386.2 -1070.8,-324.8 -981.5,-270.4 -946.8,-291.6 -938.4,-373.3 				"/>
				<polygon fill="#E3F178" points="-917.3,-282.2 -853,-322.3 -859,-327.4 -960.2,-386.6 -959,-306.8 -954.2,-289.1 -926.1,-298.3 
									"/>
				<polygon fill="none" stroke="#000000" stroke-width="11" stroke-miterlimit="10" points="-960.3,-133.8 -1069.9,-197.2 
					-1069.7,-323.7 -959.9,-386.9 -850.3,-323.5 -850.6,-196.9 				"/>
				<polygon points="-1027.6,-220.1 -1027.6,-219.9 -994.7,-200.9 -959.8,-180.7 -891.8,-219.8 -891.7,-298.2 -891.9,-298.4 				"/>
				<polygon fill="#606060" points="-959.4,-337.3 -1027.4,-298.2 -1027.6,-220.1 -891.9,-298.3 				"/>
			</g>
			<g>
				<polygon fill="#80F4DF" points="-854.6,-800.1 -926.2,-791.8 -964.7,-610.4 -855,-673.4 				"/>
				<polygon fill="#6C0530" points="-853,-672.4 -927.6,-713.8 -1075,-672.2 -965.5,-608.8 				"/>
				<polygon fill="#921516" points="-964.7,-607.4 -963.3,-693.2 -1071.7,-801.8 -1074.7,-675.3 				"/>
				<polygon fill="#D64E01" points="-1072.5,-674.2 -1008.4,-708.4 -964,-862.4 -1073.8,-799.5 				"/>
				<polygon fill="#E3F178" points="-964.1,-862.5 -964.3,-862 -863,-803.4 				"/>
				<polygon fill="#E3F178" points="-958.2,-765.1 -936.2,-745.2 -930.1,-774.3 				"/>
				<polygon fill="#E3F178" points="-854.5,-672.6 -854.5,-673.8 -855.4,-673.3 				"/>
				<polygon fill="#E3F178" points="-854.9,-798.7 -854.9,-772.1 -854.8,-798.6 				"/>
				<polygon fill="#80F4DF" points="-854.9,-673.5 -854.9,-772 -855.4,-673.2 				"/>
				<polygon fill="#FFC12A" points="-964.6,-862.2 -1074.8,-800.8 -985.5,-746.4 -950.8,-767.6 -942.4,-849.3 				"/>
				<polygon fill="#E3F178" points="-921.3,-758.2 -857,-798.3 -863,-803.4 -964.2,-862.6 -963,-782.8 -958.2,-765.1 -930.1,-774.3 
									"/>
				<polygon fill="none" stroke="#000000" stroke-width="11" stroke-miterlimit="10" points="-964.3,-609.8 -1073.9,-673.2 
					-1073.7,-799.7 -963.9,-862.9 -854.3,-799.5 -854.6,-672.9 				"/>
				<polygon points="-1031.6,-696.1 -1031.6,-695.9 -998.7,-676.9 -963.8,-656.7 -895.8,-695.8 -895.7,-774.2 -895.9,-774.4 				"/>
				<polygon fill="#606060" points="-963.4,-813.3 -1031.4,-774.2 -1031.6,-696.1 -895.9,-774.3 				"/>
			</g>
			<g>
				<polygon fill="#80F4DF" points="284.1,84.5 198.2,94.4 151.9,312 283.6,236.4 				"/>
				<polygon fill="#6C0530" points="286,237.7 196.5,187.9 19.7,237.9 151.1,313.9 				"/>
				<polygon fill="#921516" points="152,315.6 153.7,212.7 23.7,82.5 20.1,234.2 				"/>
				<polygon fill="#D64E01" points="22.7,235.4 99.6,194.5 152.8,9.8 21.1,85.2 				"/>
				<polygon fill="#E3F178" points="152.7,9.5 152.5,10.2 274,80.5 				"/>
				<polygon fill="#E3F178" points="159.8,126.4 186.2,150.3 193.6,115.3 				"/>
				<polygon fill="#E3F178" points="284.1,237.4 284.2,236 283.2,236.6 				"/>
				<polygon fill="#E3F178" points="283.7,86.2 283.7,118.1 283.9,86.3 				"/>
				<polygon fill="#80F4DF" points="283.7,236.3 283.7,118.1 283.1,236.6 				"/>
				<polygon fill="#FFC12A" points="152.1,10 19.9,83.6 127.1,148.8 168.7,123.5 178.8,25.4 				"/>
				<polygon fill="#E3F178" points="204,134.7 281.2,86.6 274,80.5 152.7,9.5 154.1,105.2 159.8,126.4 193.6,115.3 				"/>
				<polygon fill="none" stroke="#000000" stroke-width="11" stroke-miterlimit="10" points="152.4,312.8 21,236.7 21.3,84.9 
					153,9.1 284.4,85.2 284.1,237 				"/>
				<polygon points="71.4,209.2 71.4,209.4 111,232.2 153,256.4 234.6,209.5 234.8,115.5 234.3,115.3 				"/>
				<polygon fill="#606060" points="153.5,68.6 72,115.6 71.7,209.2 234.5,115.4 				"/>
			</g>
		</g>
	</g>
</g>
<g id="hex_x5F_only">
	<g id="hex_1_">
		<g id="colours_copy">
		</g>
		<g id="outerhex_copy">
		</g>
		<g id="innerhex_copy">
			<g>
				<polygon fill="#80F4DF" points="-200.5,140.4 -355.2,158.3 -438.7,550.5 -201.4,414.3 				"/>
				<polygon fill="#6C0530" points="-197,416.5 -358.3,326.9 -677.1,417 -440.3,554 				"/>
				<polygon fill="#921516" points="-438.6,556.9 -435.5,371.6 -669.9,136.7 -676.4,410.3 				"/>
				<polygon fill="#D64E01" points="-671.7,412.5 -533.1,338.7 -437.1,5.7 -674.5,141.6 				"/>
				<polygon fill="#E3F178" points="-437.2,5.3 -437.7,6.4 -218.6,133.2 				"/>
				<polygon fill="#E3F178" points="-424.5,215.9 -376.9,259 -363.7,196 				"/>
				<polygon fill="#E3F178" points="-200.3,416.1 -200.3,413.5 -202.1,414.5 				"/>
				<polygon fill="#E3F178" points="-201.1,143.4 -201.1,200.9 -200.8,143.6 				"/>
				<polygon fill="#80F4DF" points="-201.1,414 -201.1,201 -202.2,414.6 				"/>
				<polygon fill="#FFC12A" points="-438.4,6.1 -676.7,138.7 -483.5,256.3 -408.5,210.7 -390.3,33.8 				"/>
				<polygon fill="#E3F178" points="-344.8,230.9 -205.7,144.2 -218.6,133.2 -437.4,5.2 -434.8,177.7 -424.5,215.9 -363.7,196 				
					"/>
				<polygon fill="none" stroke="#000000" stroke-width="11" stroke-miterlimit="10" points="-437.8,551.9 -674.7,414.8 
					-674.2,141.1 -436.8,4.5 -199.9,141.6 -200.4,415.3 				"/>
				<polygon points="-583.4,365.2 -583.4,365.6 -512.2,406.7 -436.7,450.4 -289.7,365.8 -289.3,196.4 -290,196 				"/>
				<polygon fill="#606060" points="-435.8,111.8 -582.8,196.4 -583.3,365.3 -289.9,196.1 				"/>
			</g>
		</g>
	</g>
</g>
</svg>
